<svg xmlns="http://www.w3.org/2000/svg" width="512" height="512"
  style="shape-rendering:geometricPrecision;text-rendering:geometricPrecision;image-rendering:optimizeQuality;fill-rule:evenodd;clip-rule:evenodd">
  <path style="opacity:1" fill="#f9f2ec" d="M-.5-.5h512v512H-.5z" />
  <path style="opacity:1" fill="#ed9834"
    d="M275.5 39.5q-1.442 2.907 2 4.5-4 1 0 2l-1.5 1.5q-1.902-.175-4-1a21.3 21.3 0 0 1-4 5q-1.6-3.287-4.5-5-4.688-5.215-7-12-3.615.63-5.5 4a283 283 0 0 1-9.5 17q-2.147 2.105-3.5 5a36.2 36.2 0 0 0-4-7l-1 2q-1.088-2.487-3.5-1.5a26.6 26.6 0 0 1-2 3.5q-1.197-.686-1-2l1-6a172 172 0 0 1 14.5-24q3.709-5.71 9.5-9.5 4.701-1.185 9 1a117.4 117.4 0 0 1 15 22.5" />
  <path style="opacity:1" fill="#f9d36f"
    d="M263.5 46.5q4.785 9.093 6 18.5-1.251 8.528-9 12-15.245 4.623-21-11 .37-5.008 2-10.5a283 283 0 0 0 9.5-17q1.885-3.37 5.5-4 2.312 6.784 7 12" />
  <path style="opacity:1" fill="#f7ddc2" d="M281.5 48.5q3.017 3.25 3.5 8 1.218 6.283-.5 12 .42-10.31-3-20" />
  <path style="opacity:1" fill="#ed9c38"
    d="M275.5 39.5a65 65 0 0 1 6 9 53.1 53.1 0 0 1 3 20q-3.058 18.555-21 24h-1q-6.577-1.826-15 0h-1l-10-5q-10.587-7.164-12-20-.453-6.435 2-12-.197 1.314 1 2a26.6 26.6 0 0 0 2-3.5q2.412-.987 3.5 1.5l1-2a36.2 36.2 0 0 1 4 7q1.353-2.895 3.5-5-1.63 5.492-2 10.5 5.755 15.623 21 11 7.749-3.472 9-12-1.215-9.407-6-18.5 2.9 1.713 4.5 5a21.3 21.3 0 0 0 4-5q2.098.825 4 1l1.5-1.5q-4-1 0-2-3.442-1.593-2-4.5" />
  <path style="opacity:1" fill="#f7ddc2" d="m227.5 49.5-1 6q-2.453 5.565-2 12-1.712-4.71-.5-10 .867-4.608 3.5-8" />
  <path style="opacity:1" fill="#f9dec2" d="m236.5 87.5 10 5q-6.769.616-10-5" />
  <path style="opacity:1" fill="#e8bba8" d="M262.5 92.5h1v11q2.398-.401 4 1h-5z" />
  <path style="opacity:1" fill="#d48572" d="M246.5 92.5h1v12q-4.793-.809-7.5 3-3.591-.954-7.5 0 6.425-3.468 14-4z" />
  <path style="opacity:1" fill="#db9e8f" d="M268.5 104.5q5.748.573 10 4-5.473-1.15-10-4" />
  <path style="opacity:1" fill="#eabead" d="M278.5 108.5q4 1 5 5-3-2-5-5" />
  <path style="opacity:1" fill="#d28574" d="M232.5 107.5a25.7 25.7 0 0 1-6 6c1-3 3-5 6-6" />
  <path style="opacity:1" fill="#d9907f" d="M283.5 113.5q3.564 5.84 3 13a156 156 0 0 1-3-13" />
  <path style="opacity:1" fill="#f98b66"
    d="M271.5 147.5h2v19q-16.701 17.858-38 30a96.3 96.3 0 0 1 1-19q2.29.11 3-2 2.099-2.085 5-3 5.794-1.79 9-7z" />
  <path style="opacity:1" fill="#e5b4a3" d="M286.5 134.5q1.203 2.178 1.5 5 .75 13.491.5 27v8a1344 1344 0 0 1-2-40" />
  <path style="opacity:1" fill="#f5ddc7" d="M288.5 166.5q1.452 3.161 1 7 3.839-.452 7 1h-8z" />
  <path style="opacity:1" fill="#f8e6cd"
    d="M273.5 166.5q1.49 13.227 1 27a263 263 0 0 1-25 20.5 191 191 0 0 0-15 9.5q-.49-13.773 1-27 21.299-12.142 38-30" />
  <path style="opacity:1" fill="#bc5845"
    d="M235.5 167.5q-.469 5.313 1 10a96.3 96.3 0 0 0-1 19q-1.49 13.227-1 27v5a238 238 0 0 1-1.5-22q-1.774 1.846-3.5 0a15.04 15.04 0 0 1-3.5-6q-2.668 4.164-3-1a433 433 0 0 0-1.5 11 45 45 0 0 1 .5 14q-.272-4.793-1.5-9v-27q-2.872-.426-5 1-17.371.595-34 4-38.773 4.442-74 21-.627-1.083-2-1.5 2.115-.552 3-2.5-.828-2.254 0-5 7.31.791 13-3.5a263 263 0 0 0 12-3.5q-.357-5.399 3-1a7.25 7.25 0 0 1-2 2.5q9.157-2.03 1-7a56.4 56.4 0 0 0 11-4 72.4 72.4 0 0 1 12-.5v-3q3.424-.162 6-2.5a8.4 8.4 0 0 0-4-.5q2.128-1.426 5-1 5.887.105 11-2 10.448.151 20-3h3l22-1q-.186 1.045 0 2.5 1.888 1.473 4 1a20.9 20.9 0 0 0 4.5-8.5q2.232-2.49 5.5-3" />
  <path style="opacity:1" fill="#c05946"
    d="M262.5 92.5v12h6q4.527 2.85 10 4 2 3 5 5a156 156 0 0 0 3 13v8a1344 1344 0 0 0 2 40q15.29 1.431 31 3h3q5.21 1.538 11 2h2q8.529 3.31 18 4l6 1q2.907 2.494 7 2 2.313 1.201 5 1 2.403 2.361 6 2 3.022 2.136 7 2 1.52 1.76 4 2 3.438 2.65 8 3 1.703 2.57 5 2 2.145 1.556 5 2 3.243 3.596 8 5a24.8 24.8 0 0 0 8 5q1.627 3.13 5 4a25.7 25.7 0 0 0 6 6q3.039 4.527 6 9-.11 2.29 2 3 1.258.513 1 2 1.333 5.897 4 11l1 4a929 929 0 0 1 1 58 87 87 0 0 1-2 12 71 71 0 0 0-3 9q-1.03 51.427-2 103-2.769 4.56-4 10l-4 7q-6 5-11 11-3.53 1.26-6 4a161 161 0 0 0-15 8q-3.986.653-7 3-3.08-.147-5 2 0 1-1 1-7.146.403-13 4-3.978-.135-7 2-3.765.64-7 2-5.433-.267-10 2-5.367.073-10 2-7.545.72-15 2a1359 1359 0 0 1-46 5h-44a337 337 0 0 0-30-2q-4.82.465-9-1-2.178-1.203-5-1.5l2-1q-3.329-2.834-2.5-6.5a20 20 0 0 1-3.5-4q1.237-1.329 3-1 45.142 4.572 90 2a160 160 0 0 1 17-1 98.4 98.4 0 0 0 14-.5q5.948-.162 11-2.5h3q8.022.197 15-3 2.688.201 5-1 4.392-.098 8-2 4.305-1.7 9-2 4.493.31 8-2 1.602-1.401 4-1 8.454-.99 15-6 7.275-.638 12-6 .512-1.258 2-1 3.53-1.26 6-4 .5-1.5 2-2 3.373-.87 5-4 4.473-5.927 7.5-13a12.9 12.9 0 0 0 .5-5h1a1641 1641 0 0 0 1-81 134 134 0 0 1-20-1h-1q-.71-2.11-3-2a159 159 0 0 1-16-14q-.626-1.083-2-1.5a16.24 16.24 0 0 0-8 0q-2.462 1.694-3 4.5-1 0-1 1-2.135 3.022-2 7-1.426 2.128-1 5a590 590 0 0 1-3 15q-1.262 2.819-1 6-2.761 3.523-4 8-2.11.71-2 3a55 55 0 0 0-7 7q-4.477 1.239-8 4-10.18 2.391-20-1h-1q-.71-2.11-3-2a32.3 32.3 0 0 1-10-9 599 599 0 0 0-3-6 5.73 5.73 0 0 1-1-3q-.143-3.429-2-6a25 25 0 0 1-1-8q.31-4.493-2-8-.624-3.378-4-4.5-5.944-1.705-10 2.5-3.966.966-5 5-4.5 3.5-8 8a36.6 36.6 0 0 0-7 4q-13.416 5.42-28 4-2.687.201-5-1-2.145-1.556-5-2-14.025-6.958-21.5-21-3.654-4.42-8.5-7-1.161-.97-3-1-2.782-.24-4 2-3.13 1.627-4 5-2.361 2.403-2 6v1q-2.494 2.907-2 7v1q-1.556 2.145-2 5-4.422 10.92-15 16a69 69 0 0 1-23 0q-9.386-4.882-15-14-.653-3.986-3-7a19 19 0 0 0-2-8q1.047-9.183-3-17 .128-1.494-1-2.5-2.83-1.17-5 .5-4.114 2.609-6 7a158 158 0 0 1-7 7.5 66 66 0 0 1-10 4.5h-11q-.497 41.257 1 82 2.983 11.991 12 20 .71 2.11 3 2 1.144 2.643 4 3 .513 1.258 2 1 .71 2.11 3 2a22.6 22.6 0 0 0 8 4q1.18 2.406 4 2l5 2q1.703 2.57 5 2 4.072 2.358 9 3h1q3.876 2.958 9 3l6 1v3q9.834 1.341 0 3a40 40 0 0 1-4 6.5 8.4 8.4 0 0 1-4 .5h-1q-2.403-2.361-6-2h-2q-1.92-2.147-5-2a112 112 0 0 1-16-5q-2.3-2.618-6-3-2.145-1.556-5-2-2.439-4.683-8-5h-1q-.71-2.11-3-2-1.627-3.13-5-4-7.41-4.905-13-12 .11-2.29-2-3 .11-2.29-2-3a5.73 5.73 0 0 0-1-3q-.944-4.346-3-8 .25-50.002-.5-100a86 86 0 0 1-5-15 765 765 0 0 1 .5-67q2.136-3.022 2-7v-2q2.618-2.3 3-6 2.11-.71 2-3 .643-3.97 4-6 3.13-1.627 4-5 4.895-2.39 8-7v-1q2.82.406 4-2 .71-2.11 3-2 2.856-.357 4-3 3.649.34 5-3a27.6 27.6 0 0 0 6-3.5 8.4 8.4 0 0 1 4-.5q3.7-.382 6-3a28.9 28.9 0 0 1 8-3q3.597.361 6-2 2.313-1.201 5-1 7.014-.841 13-4h1q5.433.267 10-2a8.4 8.4 0 0 1 4 .5q-2.576 2.338-6 2.5v3a72.4 72.4 0 0 0-12 .5 56.4 56.4 0 0 1-11 4q8.157 4.97-1 7a7.25 7.25 0 0 0 2-2.5q-3.357-4.399-3 1a263 263 0 0 1-12 3.5q-5.69 4.291-13 3.5-.828 2.746 0 5-.885 1.948-3 2.5 1.373.417 2 1.5-17.887 9.135-27.5 27a33.5 33.5 0 0 0-2.5 10q-1.203 2.178-1.5 5-1.243 27.757.5 55a35.35 35.35 0 0 0 3.5 15q6.385 7.317 14.5 2.5 6.234-9.48 15-16.5 17.043-5.87 27 9a675 675 0 0 0 6.5 31q10.104 15.418 24.5 4a27 27 0 0 0 3.5-6q1.5-15.306 10.5-27.5 22.04-13.474 38.5 6.5 14.938 27.145 43.5 15.5a80 80 0 0 0 15-15q18.38-13.72 34.5 2.5 6.543 13.241 8 28 6.385 18.333 23.5 10.5l5.5-5.5q5.478-19.35 10-39 12.187-22.896 35.5-11.5 8.217 9.732 19 16 7.754 1.942 13.5-3.5 3.974-6.42 5-14 .75-26.995.5-54 1 15.261 2 31a37.3 37.3 0 0 0 4.5-12 18.8 18.8 0 0 0 4.5-5.5 7.3 7.3 0 0 0-3-2q2.633-1.08 2.5-3.5a42 42 0 0 0-7.5-7.5q2.84-1.619 1-4 2.244-.76 3.5 1.5 1.914-4.3.5-8.5a4.46 4.46 0 0 0 2-1.5 19 19 0 0 0-3-5q.753-1.824 1-3.5-5.205-5.978-12-12.5a61.6 61.6 0 0 0-10-2 132 132 0 0 0-5-9.5q-9.898-7.134-22-9a8.9 8.9 0 0 0-4-3l2-1a11.3 11.3 0 0 1-3.5-1.5l-1 2q-2.418-.678-3-4l-1 2q-.779-1.523-2.5-2-2.34 1.66-4.5 0-2.624 1.365-3.5 4-40.58-12.14-82.5-13-.151 13.486.5 27 4.324 28.102-24 30.5-20.536 3.103-39-6-4.096-3.94-5.5-9.5a129 129 0 0 1-.5-16q1.228 4.207 1.5 9a45 45 0 0 0-.5-14q.68-5.51 1.5-11 .332 5.164 3 1a15.04 15.04 0 0 0 3.5 6q1.726 1.846 3.5 0 .256 11.267 1.5 22 5.849 5.228 14 5 10.299 1.776 21-.5.834-.575 1-1.5.71-2.11 3-2 .926-.166 1.5-1 1.224-7.776-.5-15 .828-9.044 0-20 .49-13.773-1-27v-19q.477-6.798-1-13v-9q-1.177-7.995-9.5-8-3.7.195-8.5 1-5.213-1.715-11-.5-.834.575-1 1.5-3.649-.34-5 3-1.49 14.728-1 30-1.481 7.208-1 15-3.268.51-5.5 3a20.9 20.9 0 0 1-4.5 8.5q-2.112.473-4-1-.186-1.455 0-2.5v-1a424 424 0 0 1 2.5-56 39 39 0 0 1 2.5-5 25.7 25.7 0 0 0 6-6q3.909-.954 7.5 0 2.707-3.809 7.5-3v-12q8.423-1.826 15 0" />
  <path style="opacity:1" fill="#f8a07f" d="M253.5 165.5q-3.206 5.21-9 7a45.7 45.7 0 0 1 9-7" />
  <path style="opacity:1" fill="#db9786"
    d="M236.5 152.5q-.25 12.01.5 24 1.006-1.129 2.5-1-.71 2.11-3 2-1.469-4.687-1-10-.481-7.792 1-15" />
  <path style="opacity:1" fill="#f9e6cd"
    d="M272.5 125.5v9a46.8 46.8 0 0 1-1 13l-18 18a45.7 45.7 0 0 0-9 7q-2.901.915-5 3-1.494-.129-2.5 1-.75-11.99-.5-24a280 280 0 0 0 36-27" />
  <path style="opacity:1" fill="#d89788" d="M272.5 134.5q1.477 6.202 1 13h-2a46.8 46.8 0 0 0 1-13" />
  <path style="opacity:1" fill="#f5cbab"
    d="M253.5 118.5q.166.925 1 1.5L238 134.5a72.4 72.4 0 0 1-.5-12q1.351-3.34 5-3a49.4 49.4 0 0 1 11-1" />
  <path style="opacity:1" fill="#f88965"
    d="M272.5 125.5a280 280 0 0 1-36 27q-.49-15.272 1-30a72.4 72.4 0 0 0 .5 12l16.5-14.5q-.834-.575-1-1.5h1q4.8-.805 8.5-1 8.323.005 9.5 8" />
  <path style="opacity:1" fill="#d08371" d="M254.5 118.5h-1a49.4 49.4 0 0 0-11 1q.166-.925 1-1.5 5.787-1.215 11 .5" />
  <path style="opacity:1" fill="#d18270" d="M176.5 179.5q-5.113 2.105-11 2 5.113-2.105 11-2" />
  <path style="opacity:1" fill="#da9786" d="M335.5 179.5q9.376 1.072 18 4-9.471-.69-18-4" />
  <path style="opacity:1" fill="#d89281" d="M160.5 182.5q-4.567 2.267-10 2 4.633-1.927 10-2" />
  <path style="opacity:1" fill="#d58c7b" d="M359.5 184.5q3.851.332 7 2-4.093.494-7-2" />
  <path style="opacity:1" fill="#d48471" d="M149.5 184.5q-5.986 3.159-13 4 6.003-3.165 13-4" />
  <path style="opacity:1" fill="#e5b2a2" d="M371.5 187.5q3.597-.361 6 2-3.597.361-6-2" />
  <path style="opacity:1" fill="#f9825d"
    d="M220.5 215.5q-.249 8.016.5 16 1.404 5.56 5.5 9.5 18.464 9.103 39 6 28.324-2.398 24-30.5a455 455 0 0 1-.5-27q41.92.86 82.5 13 25.97 6.985 47 23.5 14.013 13.77 15 33.5.25 27.005-.5 54-1.026 7.58-5 14-5.746 5.442-13.5 3.5-10.783-6.268-19-16-23.313-11.396-35.5 11.5a811 811 0 0 1-10 39l-5.5 5.5q-17.115 7.833-23.5-10.5-1.457-14.759-8-28-16.12-16.22-34.5-2.5a80 80 0 0 1-15 15q-28.562 11.645-43.5-15.5-16.46-19.974-38.5-6.5-9 12.194-10.5 27.5a27 27 0 0 1-3.5 6q-14.396 11.418-24.5-4a675 675 0 0 1-6.5-31q.129-1.494-1-2.5l2-1a41.5 41.5 0 0 0-6-9q.542-6.807 2-14a14.7 14.7 0 0 1-3-3.5q-10.113.277-16 8.5a57.6 57.6 0 0 0-8 3q-2.775 2.768-1 6 3.322.255 6 2-1.373.417-2 1.5-8.766 7.02-15 16.5-8.115 4.817-14.5-2.5a35.35 35.35 0 0 1-3.5-15q-.388-30.03 1-60a33.5 33.5 0 0 1 2.5-10q9.613-17.865 27.5-27 35.227-16.558 74-21 4.473.49 8.5 0a54.8 54.8 0 0 1 4 14q22.236 16.222 17.5-10.5a54 54 0 0 1 4-7.5q2.128-1.426 5-1z" />
  <path style="opacity:1" fill="#e6b9a8" d="M377.5 189.5q3.978-.136 7 2-3.978.136-7-2" />
  <path style="opacity:1" fill="#dd9c8b" d="M131.5 189.5q-2.403 2.361-6 2 2.403-2.361 6-2" />
  <path style="opacity:1" fill="#f88263"
    d="M215.5 189.5a54 54 0 0 0-4 7.5q4.736 26.722-17.5 10.5a54.8 54.8 0 0 0-4-14q-4.027.49-8.5 0 16.629-3.405 34-4" />
  <path style="opacity:1" fill="#ebc5b4" d="M384.5 191.5q3.597-.361 6 2h-2q-2.48-.24-4-2" />
  <path style="opacity:1" fill="#f78964"
    d="M274.5 193.5q.828 10.956 0 20-2 0-2 2a11364 11364 0 0 0-24 18q-8.151.228-14-5v-5a191 191 0 0 1 15-9.5 263 263 0 0 0 25-20.5" />
  <path style="opacity:1" fill="#d89482" d="M388.5 193.5h2q3.375.945 6 3-4.562-.35-8-3" />
  <path style="opacity:1" fill="#d48c7b" d="M117.5 194.5q-2.3 2.618-6 3 2.3-2.618 6-3" />
  <path style="opacity:1" fill="#d99483" d="M396.5 196.5q3.08-.147 5 2-3.297.57-5-2" />
  <path style="opacity:1" fill="#bc5744"
    d="M433.5 259.5q-.987-19.73-15-33.5-21.03-16.515-47-23.5.876-2.635 3.5-4 2.16 1.66 4.5 0 1.721.477 2.5 2l1-2q.582 3.322 3 4l1-2a11.3 11.3 0 0 0 3.5 1.5l-2 1a8.9 8.9 0 0 1 4 3q12.102 1.866 22 9a132 132 0 0 1 5 9.5 61.6 61.6 0 0 1 10 2q6.795 6.522 12 12.5-.247 1.676-1 3.5a19 19 0 0 1 3 5 4.46 4.46 0 0 1-2 1.5q1.414 4.2-.5 8.5-1.256-2.26-3.5-1.5 1.84 2.381-1 4a42 42 0 0 1 7.5 7.5q.133 2.42-2.5 3.5a7.3 7.3 0 0 1 3 2 18.8 18.8 0 0 1-4.5 5.5 37.3 37.3 0 0 1-4.5 12q-1-15.739-2-31" />
  <path style="opacity:1" fill="#edc7b6" d="M406.5 200.5q5.445.302 8 5-4.757-1.404-8-5" />
  <path style="opacity:1" fill="#dc9682" d="M101.5 201.5q-1.351 3.34-5 3 2.1-2.085 5-3" />
  <path style="opacity:1" fill="#d78f7d" d="M96.5 204.5q-1.144 2.643-4 3 1.144-2.643 4-3" />
  <path style="opacity:1" fill="#db9b8c" d="M89.5 209.5q-1.18 2.406-4 2 1.52-1.76 4-2" />
  <path style="opacity:1" fill="#eabeaa" d="M422.5 210.5q3.373.87 5 4-3.373-.87-5-4" />
  <path style="opacity:1" fill="#f3cebc" d="M427.5 214.5c3 1 5 3 6 6a25.7 25.7 0 0 1-6-6" />
  <path style="opacity:1" fill="#f8e0c8"
    d="M273.5 229.5q-2.29-.11-3 2a123.4 123.4 0 0 1-22 2q11.943-8.982 24-18 .926-.166 1.5-1a42.3 42.3 0 0 1-.5 15" />
  <path style="opacity:1" fill="#cf7664" d="M85.5 212.5q-3.105 4.61-8 7 3.105-4.61 8-7" />
  <path style="opacity:1" fill="#e7a795"
    d="M274.5 213.5q1.724 7.224.5 15-.574.834-1.5 1a42.3 42.3 0 0 0 .5-15q-.574.834-1.5 1 0-2 2-2" />
  <path style="opacity:1" fill="#f98363"
    d="M201.5 219.5h8q3.257 6.04 4 13l-.5 5q-3.683-1.865-3.5-6-5.627-.627-6.5 5-5.685 1.185-6 7a7.25 7.25 0 0 1-2.5 2 776 776 0 0 1-20.5-8 15.6 15.6 0 0 0-7.5 3.5 12.5 12.5 0 0 1-7 0 51.7 51.7 0 0 1-1.5-9.5q-3.526-4.065-6 1a8.4 8.4 0 0 0-.5 4 13.1 13.1 0 0 1-7-1 46.6 46.6 0 0 1 5.5-6q-.476-10.533 9.5-7.5 3.584 5.211 10 6a14.5 14.5 0 0 1 4 5q8.173 1.344 16-1a181 181 0 0 1 12-12.5" />
  <path style="opacity:1" fill="#d48370" d="M77.5 219.5q-.87 3.373-4 5 .87-3.373 4-5" />
  <path style="opacity:1" fill="#f98363"
    d="M314.5 231.5q5.071-.06 10 1a12.9 12.9 0 0 1-.5 5q-6.77 4.047-6.5 12a4.93 4.93 0 0 1-3-.5q-2.25-4.25-6.5-6.5-2.498-4.594 1.5-8.5 2.987-.56 5-2.5" />
  <path style="opacity:1" fill="#d78f7c" d="M439.5 229.5q2.11.71 2 3-2.11-.71-2-3m-370 1q.11 2.29-2 3-.11-2.29 2-3" />
  <path style="opacity:1" fill="#d0806d" d="M270.5 231.5q-.166.925-1 1.5-10.701 2.276-21 .5 11.1-.014 22-2" />
  <path style="opacity:1" fill="#fa8364"
    d="M136.5 270.5q-12.743-2.886-24-9 11.167-1.333 3-8.5a11.3 11.3 0 0 1-3.5-1.5l-4-6q-.38-7.621 7.5-7.5a64.2 64.2 0 0 1 16 0q1.893 5.704 6 10a95.7 95.7 0 0 0-10 13l4 2v4q2.896 1.353 5 3.5" />
  <path style="opacity:1" fill="#e4ac9b" d="M67.5 233.5q-.382 3.7-3 6 .382-3.7 3-6" />
  <path style="opacity:1" fill="#e0a392" d="M442.5 234.5q3.577 4.73 4 11-2.667-5.103-4-11" />
  <path style="opacity:1" fill="#d99483" d="M64.5 241.5q.136 3.978-2 7-.136-3.978 2-7" />
  <path style="opacity:1" fill="#e27252" d="M77.5 251.5q-1.388 29.97-1 60-1.743-27.243-.5-55 .297-2.822 1.5-5" />
  <path style="opacity:1" fill="#f8e4cd" d="M447.5 249.5q1.185 1.663 1.5 4 1.243 27.256-.5 54 .405-29.034-1-58" />
  <path style="opacity:1" fill="#f9c5a0"
    d="M112.5 261.5q11.257 6.114 24 9 25.703 8.494 53 11.5a493 493 0 0 0 76 3.5q.926.166 1.5 1 9.4-.973 18.5-2 .926.166 1.5 1 12.4-1.465 24.5-3 47.82-3.08 91-23.5a16.64 16.64 0 0 0 6-5 32.4 32.4 0 0 0 6-1.5q12.297 3.974 3 13.5-21.413 13.478-46 20a578 578 0 0 1-44 9.5 3841 3841 0 0 0-39 4q-15.185-.4-29 1h-3a348 348 0 0 0-11 0 692 692 0 0 1-52-4 1305 1305 0 0 0-29-4q-6.663-2.235-14-3a642 642 0 0 1-28-8 1698 1698 0 0 1-29-13.5 51 51 0 0 1-5-7.5q.097-10.351 10-7.5a69.2 69.2 0 0 0 14 8.5" />
  <path style="opacity:1" fill="#fa8364"
    d="M301.5 282.5q-2.951.359-5.5-1a65 65 0 0 1-10.5 3h-15a71 71 0 0 0-4-2q1.742-2.586-.5-5-10.473-3.512-1-9 3.555 3.402 8.5 4a188 188 0 0 1 12-2q5.156.078 9 3.5 4.05.38 8 0l2 1q-2.965 3.065-3 7.5" />
  <path style="opacity:1" fill="#fa9773"
    d="M301.5 282.5h10a2903 2903 0 0 1-24.5 3q-.574-.834-1.5-1a65 65 0 0 0 10.5-3q2.549 1.359 5.5 1" />
  <path style="opacity:1" fill="#fa8968"
    d="M122.5 281.5a642 642 0 0 0 28 8 80 80 0 0 0-9.5 2q-5.316-1.953-10.5 0-.681-3.96-3.5-7-2.817-.83-4.5-3" />
  <path style="opacity:1" fill="#fa9a77" d="M265.5 285.5q2.128-1.426 5-1h15q-9.1 1.027-18.5 2-.574-.834-1.5-1" />
  <path style="opacity:1" fill="#f88262"
    d="M130.5 291.5a14.7 14.7 0 0 0 3 3.5q-1.458 7.193-2 14a41.5 41.5 0 0 1 6 9l-2 1q1.129 1.006 1 2.5-9.957-14.87-27-9 .627-1.083 2-1.5-2.678-1.745-6-2-1.775-3.232 1-6a57.6 57.6 0 0 1 8-3q5.887-8.223 16-8.5" />
  <path style="opacity:1" fill="#fa8565"
    d="M164.5 292.5a1305 1305 0 0 1 29 4q5.556 2.386 12 2.5a394 394 0 0 0 40 1.5q5.65-.087 11 0-7.666 5.777-17 2.5l5-1a64.2 64.2 0 0 0-24 2q-9.64 8.315-21.5 3.5l-3 1q-8.949-7.99-20.5-11.5 2-1 0-2l-9-1q-1.373-.417-2-1.5" />
  <path style="opacity:1" fill="#fa8d68"
    d="M327.5 295.5q-.5 1.5-2 2-9.207.278-14.5 6-1-6-2 0-.539-4.567-2-1-.908-2.972-3-1-4.573-4.351-6 2l-1-3q-2.86-.119-6 1-1.492-.85-2.5-2a3841 3841 0 0 1 39-4" />
  <path style="opacity:1" fill="#fa8464"
    d="M325.5 297.5a49.6 49.6 0 0 0-7 11.5q-13.722 6.757-24.5-3.5a55 55 0 0 0-4.5 2 187 187 0 0 0-6 9.5q-6 1-12 0-2.475-5.91-2.5-12.5-4.398-3.17-9.5-4 13.815-1.4 29-1 1.008 1.15 2.5 2 3.14-1.119 6-1l1 3q1.427-6.351 6-2 2.092-1.972 3 1 1.461-3.567 2 1 1-6 2 0 5.293-5.722 14.5-6" />
  <path style="opacity:1" fill="#fa9b78" d="M193.5 296.5a692 692 0 0 0 52 4 394 394 0 0 1-40-1.5q-6.444-.114-12-2.5" />
  <path style="opacity:1" fill="#dea08f" d="M446.5 319.5q.543 5.372-3 9a71 71 0 0 1 3-9" />
  <path style="opacity:1" fill="#d28471" d="M116.5 325.5q2.17-1.67 5-.5 1.128 1.006 1 2.5l-2-1q-1.602-1.401-4-1" />
  <path style="opacity:1" fill="#f1d0bd"
    d="M116.5 325.5q2.398-.401 4 1a8.4 8.4 0 0 0-4 .5q-2.874 3.135-6 5.5 1.886-4.391 6-7" />
  <path style="opacity:1" fill="#f9f2df"
    d="m120.5 326.5 2 1q1.8 8.631 3 17a19 19 0 0 1 2 8q-.501 4.486 3 7 5.614 9.118 15 14 5.047 2.309 11 2 6.415.245 12-2 10.578-5.08 15-16 2.57-1.703 2-5v-1q1.668-3.149 2-7v-1q2.361-2.403 2-6 .87-3.373 4-5a21.4 21.4 0 0 1 7-1q4.846 2.58 8.5 7 7.475 14.042 21.5 21 1.703 2.57 5 2 2.313 1.201 5 1 9.23 1.73 19 .5 5.058-1.529 9-4.5a36.6 36.6 0 0 1 7-4q5.5-2.5 8-8 2.928-1.927 5-5 4.056-4.205 10-2.5 3.376 1.122 4 4.5-.31 4.493 2 8a25 25 0 0 0 1 8q-.67 3.765 2 6a5.73 5.73 0 0 0 1 3q-.713 4.22 3 6a32.3 32.3 0 0 0 10 9q.71 2.11 3 2h1q.837 1.935 3 2.5 7.5 1 15 0 1.374-.417 2-1.5 5.377.312 8-4a55 55 0 0 1 7-7q2.11-.71 2-3 4.312-2.623 4-8-.262-3.181 1-6 1.94-2.013 2.5-5 .747-4.975.5-10-.426-2.872 1-5 2.135-3.022 2-7 0-1 1-1 5.278-6.138 13-3a159 159 0 0 0 16 14q.71 2.11 3 2h1q.626 1.083 2 1.5 8.486.749 17 .5v30a113 113 0 0 1-16 11 314 314 0 0 1-34.5 14q-1.545.504-1.5 2a35.2 35.2 0 0 1-8 2q-5.518-.206-10.5 2l-1-1q-16.926 5.15-35.5 7.5-70.756 9.563-140.5-1.5-9.087-2.646-19.5-3-8.404-1.072-16-4a635 635 0 0 0-31-11 127 127 0 0 1-29-17v-31q5.313.469 10-1a66 66 0 0 0 10-4.5 158 158 0 0 0 7-7.5q3.126-2.365 6-5.5a8.4 8.4 0 0 1 4-.5" />
  <path style="opacity:1" fill="#e4b4a2"
    d="M387.5 327.5q-7.722-3.138-13 3 .538-2.806 3-4.5a16.24 16.24 0 0 1 8 0q1.374.417 2 1.5" />
  <path style="opacity:1" fill="#d48b78" d="M200.5 331.5a21.4 21.4 0 0 0-7 1q1.218-2.24 4-2 1.839.03 3 1" />
  <path style="opacity:1" fill="#e9bca9" d="M122.5 327.5q4.047 7.817 3 17-1.2-8.369-3-17" />
  <path style="opacity:1" fill="#e6b8a6" d="M373.5 331.5q.135 3.978-2 7-.135-3.978 2-7" />
  <path style="opacity:1" fill="#e6b3a1" d="M189.5 337.5q.361 3.597-2 6-.361-3.597 2-6" />
  <path style="opacity:1" fill="#e5b7a7" d="M288.5 341.5q-2.072 3.073-5 5 1.034-4.034 5-5" />
  <path style="opacity:1" fill="#da9d8e" d="M403.5 341.5q2.29-.11 3 2-2.29.11-3-2" />
  <path style="opacity:1" fill="#e6a795" d="M93.5 344.5q-4.687 1.469-10 1v81a1682 1682 0 0 1-1-82z" />
  <path style="opacity:1" fill="#d58977" d="M187.5 344.5q-.332 3.851-2 7-.494-4.093 2-7" />
  <path style="opacity:1" fill="#e8bbab" d="M302.5 343.5q2.31 3.507 2 8-2.31-3.507-2-8" />
  <path style="opacity:1" fill="#eec9b7" d="M283.5 346.5q-2.5 5.5-8 8 3.5-4.5 8-8" />
  <path style="opacity:1" fill="#eabda8" d="M370.5 343.5a50.5 50.5 0 0 1-.5 10q-.56 2.987-2.5 5a590 590 0 0 0 3-15" />
  <path style="opacity:1" fill="#ebbca7" d="M127.5 352.5q2.347 3.014 3 7-3.501-2.514-3-7" />
  <path style="opacity:1" fill="#e7b7a7" d="M185.5 352.5q.57 3.297-2 5 .444-2.855 2-5" />
  <path style="opacity:1" fill="#e3b1a2" d="M230.5 359.5q2.855.444 5 2-3.297.57-5-2" />
  <path style="opacity:1" fill="#e1a997" d="M268.5 358.5q-3.942 2.971-9 4.5-9.77 1.23-19-.5 14.584 1.42 28-4" />
  <path style="opacity:1" fill="#e8b8a2" d="M305.5 359.5q1.857 2.571 2 6-2.67-2.235-2-6" />
  <path style="opacity:1" fill="#f0ceb9" d="M366.5 364.5q.312 5.377-4 8 1.239-4.477 4-8" />
  <path style="opacity:1" fill="#eec8b8" d="M308.5 368.5a599 599 0 0 1 3 6q-3.713-1.78-3-6" />
  <path style="opacity:1" fill="#e5b7a1" d="M362.5 372.5q.11 2.29-2 3-.11-2.29 2-3" />
  <path style="opacity:1" fill="#d18371" d="M145.5 373.5a69 69 0 0 0 23 0q-5.585 2.245-12 2-5.953.309-11-2" />
  <path style="opacity:1" fill="#f9c19c"
    d="M426.5 375.5v29q-5.172 1.335-9 5a8702 8702 0 0 0-21 10 359 359 0 0 0-23 8q-6.392.597-12 3a779 779 0 0 1-62 10h-3q-78.328 5.898-156-12-30.013-8.253-57-24v-28a127 127 0 0 0 29 17q14.636 7.548 31 11 7.596 2.928 16 4 13.068 3.883 27 5.5 72.156 9.296 144-1a355 355 0 0 0 36-8.5 35.2 35.2 0 0 0 8-2q19.21-5.611 36-16a113 113 0 0 0 16-11" />
  <path style="opacity:1" fill="#cf816e"
    d="M407.5 343.5a134 134 0 0 0 20 1q.497 40.758-1 81v-80a145 145 0 0 1-17-.5q-1.374-.417-2-1.5" />
  <path style="opacity:1" fill="#d7907e" d="M321.5 383.5q2.29-.11 3 2-2.29.11-3-2" />
  <path style="opacity:1" fill="#f0ceb9" d="M353.5 382.5q-2.623 4.312-8 4 3.523-2.761 8-4" />
  <path style="opacity:1" fill="#ecc3af"
    d="M325.5 385.5q9.82 3.391 20 1-.626 1.083-2 1.5-7.5 1-15 0-2.163-.565-3-2.5" />
  <path style="opacity:1" fill="#f6e0c8" d="M112.5 393.5a635 635 0 0 1 31 11q-16.364-3.452-31-11" />
  <path style="opacity:1" fill="#f6e0c7" d="M410.5 386.5q-16.79 10.389-36 16-.045-1.496 1.5-2a314 314 0 0 0 34.5-14" />
  <path style="opacity:1" fill="#f9f2df"
    d="M83.5 404.5q26.987 15.747 57 24 7.955 3.876 17 5.5 31.065 6.583 62.5 7.5a479 479 0 0 0 59 2 122 122 0 0 0 17.5-3h3q25.905-.498 52-6.5 5.495-.857 10-3.5 5.608-2.403 12-3a97 97 0 0 0 20-5.5q2.163-.565 3-2.5a8702 8702 0 0 1 21-10q4.222-.94 7.5-4 .75 9.987.5 20a12.9 12.9 0 0 1-.5 5q-3.027 7.073-7.5 13-3.373.87-5 4-1.5.5-2 2-4.047.517-6 4-1.488-.258-2 1-6.477 2.238-12 6a101 101 0 0 0-15 6q-2.398-.401-4 1-4.392.098-8 2-4.695.3-9 2-4.797-.804-8 2-2.312 1.201-5 1-7.813.837-15 3h-3a2670 2670 0 0 1-25 3q-8.533.048-17 1a796 796 0 0 1-90-3q-8.504-3.361-18-3l-19-4-6-1q-3.968-2.715-9-3h-1q-3.876-2.958-9-3-2.145-1.556-5-2l-5-2q-1.52-1.76-4-2a22.6 22.6 0 0 1-8-4q-.71-2.11-3-2-1.487.258-2-1-1.144-2.643-4-3-.71-2.11-3-2-9.017-8.009-12-20z" />
  <path style="opacity:1" fill="#bd5b48"
    d="m154.5 471.5 19 4q8.504 3.361 18 3v1q-1.763-.329-3 1a20 20 0 0 0 3.5 4q-.829 3.666 2.5 6.5l-2 1q2.822.297 5 1.5a49.4 49.4 0 0 1-11-1q-.166-.926-1-1.5a50.5 50.5 0 0 0-10-.5 106.4 106.4 0 0 1-18-3q-2.403-2.361-6-2-2.872.426-5-1a8.4 8.4 0 0 0 4-.5 40 40 0 0 0 4-6.5q9.834-1.659 0-3z" />
</svg>